<svg width="302" height="88" viewBox="0 0 302 88" fill="none" xmlns="http://www.w3.org/2000/svg">
<path d="M80 23.4588L81.5 29" stroke="#FF357E" stroke-width="4" stroke-linecap="round"/>
<path d="M80 23.4588L89.1763 21" stroke="#FF357E" stroke-width="4" stroke-linecap="round"/>
<circle cx="81" cy="25" r="16" stroke="#FF357E" stroke-width="4"/>
<path d="M84.4063 4.73117C82.1282 4.22776 80.3939 4.19318 78.1199 4.70444C77.1743 4.91705 76.1843 4.49916 75.7508 3.63224L75.5091 3.14884C75.2392 2.60906 75.5055 1.95261 76.0841 1.78132C79.6258 0.73296 82.7588 0.743865 86.3983 1.78832C86.9832 1.95619 87.2565 2.61755 86.9844 3.16185L86.7346 3.66131C86.3077 4.51525 85.3386 4.93718 84.4063 4.73117Z" fill="#FF357E" stroke="#FF357E"/>
<path d="M126.64 32.464C125.936 32.7627 125.125 33.04 124.208 33.296C123.312 33.552 122.405 33.68 121.488 33.68C120.848 33.68 120.24 33.5947 119.664 33.424C119.109 33.2747 118.619 33.0293 118.192 32.688C117.765 32.3253 117.424 31.856 117.168 31.28C116.933 30.704 116.816 30.0107 116.816 29.2V20.432H114.672V16.56H116.816V11.216H121.936V16.56H125.36V20.432H121.936V27.44C121.936 27.9947 122.075 28.4 122.352 28.656C122.629 28.8907 122.981 29.008 123.408 29.008C123.792 29.008 124.187 28.944 124.592 28.816C124.997 28.688 125.349 28.5493 125.648 28.4L126.64 32.464Z" fill="#1E052D"/>
<path d="M127.675 33.36V16.56H132.795V33.36H127.675ZM129.995 14.64C128.714 14.64 127.675 13.6013 127.675 12.32V12.32C127.675 11.0387 128.714 10 129.995 10H130.475C131.756 10 132.795 11.0387 132.795 12.32V12.32C132.795 13.6013 131.756 14.64 130.475 14.64H129.995Z" fill="#1E052D"/>
<path d="M161.9 33.36H156.78V23.92C156.78 22.8107 156.577 22.0107 156.172 21.52C155.767 21.008 155.244 20.752 154.604 20.752C154.263 20.752 153.911 20.8267 153.548 20.976C153.207 21.1253 152.887 21.3387 152.588 21.616C152.289 21.872 152.012 22.1813 151.756 22.544C151.521 22.9067 151.329 23.3013 151.18 23.728V33.36H146.06V23.92C146.06 22.8107 145.857 22.0107 145.452 21.52C145.047 21.008 144.524 20.752 143.884 20.752C143.201 20.752 142.529 21.0293 141.868 21.584C141.228 22.1173 140.759 22.832 140.46 23.728V33.36H135.34V16.56H139.948V19.376C140.567 18.352 141.399 17.5733 142.444 17.04C143.511 16.5067 144.748 16.24 146.156 16.24C146.86 16.24 147.468 16.3253 147.98 16.496C148.513 16.6667 148.972 16.9013 149.356 17.2C149.74 17.4987 150.049 17.8507 150.284 18.256C150.519 18.64 150.689 19.056 150.796 19.504C151.436 18.4587 152.279 17.6587 153.324 17.104C154.369 16.528 155.564 16.24 156.908 16.24C157.975 16.24 158.828 16.4427 159.468 16.848C160.129 17.232 160.641 17.744 161.004 18.384C161.367 19.0027 161.601 19.6853 161.708 20.432C161.836 21.1787 161.9 21.904 161.9 22.608V33.36Z" fill="#1E052D"/>
<path d="M172.318 33.68C170.91 33.68 169.641 33.456 168.51 33.008C167.401 32.5387 166.452 31.9093 165.662 31.12C164.894 30.3307 164.308 29.424 163.902 28.4C163.497 27.3547 163.294 26.2667 163.294 25.136C163.294 23.92 163.497 22.7787 163.902 21.712C164.308 20.624 164.894 19.6747 165.662 18.864C166.43 18.0533 167.369 17.4133 168.478 16.944C169.609 16.4747 170.889 16.24 172.318 16.24C173.748 16.24 175.017 16.4747 176.126 16.944C177.236 17.4133 178.174 18.0533 178.942 18.864C179.71 19.6533 180.286 20.5707 180.67 21.616C181.076 22.6613 181.278 23.76 181.278 24.912C181.278 25.2107 181.268 25.5093 181.246 25.808C181.225 26.0853 181.193 26.3307 181.15 26.544H168.734C168.82 27.6747 169.225 28.5387 169.95 29.136C170.697 29.712 171.54 30 172.478 30C173.225 30 173.94 29.8187 174.622 29.456C175.326 29.0933 175.796 28.6027 176.03 27.984L180.382 29.2C179.721 30.5227 178.697 31.6 177.31 32.432C175.924 33.264 174.26 33.68 172.318 33.68ZM175.87 23.376C175.764 22.3093 175.38 21.4667 174.718 20.848C174.057 20.2293 173.236 19.92 172.254 19.92C171.252 19.92 170.42 20.24 169.758 20.88C169.118 21.4987 168.745 22.3307 168.638 23.376H175.87Z" fill="#1E052D"/>
<path d="M193.295 20.944C192.057 20.9653 190.937 21.168 189.935 21.552C188.932 21.936 188.207 22.512 187.759 23.28V33.36H182.639V16.56H187.343V19.952C187.919 18.8213 188.655 17.936 189.551 17.296C190.468 16.656 191.439 16.3253 192.463 16.304C192.697 16.304 192.868 16.304 192.975 16.304C193.081 16.304 193.188 16.3147 193.295 16.336V20.944Z" fill="#1E052D"/>
<path d="M194.427 10H199.547V27.376C199.547 28.656 200.091 29.296 201.179 29.296C201.435 29.296 201.713 29.264 202.011 29.2C202.331 29.1147 202.619 28.9973 202.875 28.848L203.547 32.688C202.907 32.9867 202.171 33.2213 201.339 33.392C200.507 33.5627 199.729 33.648 199.003 33.648C197.531 33.648 196.401 33.264 195.611 32.496C194.822 31.728 194.427 30.6187 194.427 29.168V10Z" fill="#1E052D"/>
<path d="M209.018 33.68C208.186 33.68 207.407 33.552 206.682 33.296C205.978 33.0187 205.37 32.6453 204.858 32.176C204.346 31.6853 203.941 31.12 203.642 30.48C203.343 29.8187 203.194 29.104 203.194 28.336C203.194 27.504 203.365 26.7467 203.706 26.064C204.069 25.3813 204.57 24.7947 205.21 24.304C205.85 23.8133 206.607 23.4293 207.482 23.152C208.357 22.8747 209.327 22.736 210.394 22.736C211.098 22.736 211.781 22.8 212.442 22.928C213.103 23.0347 213.679 23.2053 214.17 23.44V22.672C214.17 20.7307 213.05 19.76 210.81 19.76C209.893 19.76 209.018 19.92 208.186 20.24C207.354 20.5387 206.479 20.9973 205.562 21.616L204.058 18.416C205.167 17.6907 206.319 17.1467 207.514 16.784C208.709 16.4213 209.978 16.24 211.322 16.24C213.861 16.24 215.823 16.8373 217.21 18.032C218.597 19.2267 219.29 20.976 219.29 23.28V27.6C219.29 28.112 219.365 28.4747 219.514 28.688C219.685 28.88 219.973 28.9973 220.378 29.04V33.36C219.93 33.4667 219.525 33.5307 219.162 33.552C218.799 33.5947 218.469 33.616 218.17 33.616C217.21 33.616 216.485 33.4347 215.994 33.072C215.503 32.688 215.194 32.1547 215.066 31.472L214.97 30.704C214.223 31.664 213.327 32.4 212.282 32.912C211.258 33.424 210.17 33.68 209.018 33.68ZM210.522 30C211.077 30 211.61 29.904 212.122 29.712C212.655 29.52 213.093 29.264 213.434 28.944C213.925 28.56 214.17 28.1547 214.17 27.728V26.128C213.722 25.9573 213.231 25.8293 212.698 25.744C212.186 25.6373 211.706 25.584 211.258 25.584C210.319 25.584 209.541 25.7973 208.922 26.224C208.325 26.6507 208.026 27.2053 208.026 27.888C208.026 28.5067 208.261 29.0187 208.73 29.424C209.199 29.808 209.797 30 210.522 30Z" fill="#1E052D"/>
<path d="M232.12 33.68C230.84 33.68 229.72 33.4133 228.76 32.88C227.8 32.3253 227.043 31.5573 226.488 30.576V33.36H222.04V10H227.16V19.312C227.715 18.352 228.451 17.6053 229.368 17.072C230.307 16.5173 231.405 16.24 232.664 16.24C233.731 16.24 234.712 16.4747 235.608 16.944C236.504 17.392 237.272 18.0107 237.912 18.8C238.552 19.5893 239.053 20.528 239.416 21.616C239.779 22.6827 239.96 23.824 239.96 25.04C239.96 26.256 239.757 27.3973 239.352 28.464C238.968 29.5093 238.424 30.4267 237.72 31.216C237.016 31.984 236.184 32.592 235.224 33.04C234.264 33.4667 233.229 33.68 232.12 33.68ZM230.68 29.36C231.277 29.36 231.821 29.2533 232.312 29.04C232.803 28.8053 233.219 28.496 233.56 28.112C233.923 27.728 234.2 27.28 234.392 26.768C234.605 26.2347 234.712 25.6587 234.712 25.04C234.712 24.4427 234.616 23.8773 234.424 23.344C234.232 22.7893 233.965 22.3093 233.624 21.904C233.304 21.4987 232.909 21.1787 232.44 20.944C231.971 20.7093 231.469 20.592 230.936 20.592C230.125 20.592 229.379 20.8693 228.696 21.424C228.035 21.9787 227.523 22.672 227.16 23.504V27.024C227.501 27.7493 227.992 28.3253 228.632 28.752C229.293 29.1573 229.976 29.36 230.68 29.36Z" fill="#1E052D"/>
<path d="M8.946 78.606H3.942L3.114 81H0.468L4.986 68.418H7.92L12.438 81H9.774L8.946 78.606ZM8.262 76.59L6.444 71.334L4.626 76.59H8.262ZM84.0549 75.978C84.0549 74.97 84.2529 74.076 84.6489 73.296C85.0569 72.516 85.6029 71.916 86.2869 71.496C86.9829 71.076 87.7569 70.866 88.6089 70.866C89.3529 70.866 90.0009 71.016 90.5529 71.316C91.1169 71.616 91.5669 71.994 91.9029 72.45V71.028H94.4409V81H91.9029V79.542C91.5789 80.01 91.1289 80.4 90.5529 80.712C89.9889 81.012 89.3349 81.162 88.5909 81.162C87.7509 81.162 86.9829 80.946 86.2869 80.514C85.6029 80.082 85.0569 79.476 84.6489 78.696C84.2529 77.904 84.0549 76.998 84.0549 75.978ZM91.9029 76.014C91.9029 75.402 91.7829 74.88 91.5429 74.448C91.3029 74.004 90.9789 73.668 90.5709 73.44C90.1629 73.2 89.7249 73.08 89.2569 73.08C88.7889 73.08 88.3569 73.194 87.9609 73.422C87.5649 73.65 87.2409 73.986 86.9889 74.43C86.7489 74.862 86.6289 75.378 86.6289 75.978C86.6289 76.578 86.7489 77.106 86.9889 77.562C87.2409 78.006 87.5649 78.348 87.9609 78.588C88.3689 78.828 88.8009 78.948 89.2569 78.948C89.7249 78.948 90.1629 78.834 90.5709 78.606C90.9789 78.366 91.3029 78.03 91.5429 77.598C91.7829 77.154 91.9029 76.626 91.9029 76.014ZM102.428 70.884C103.616 70.884 104.576 71.262 105.308 72.018C106.04 72.762 106.406 73.806 106.406 75.15V81H103.886V75.492C103.886 74.7 103.688 74.094 103.292 73.674C102.896 73.242 102.356 73.026 101.672 73.026C100.976 73.026 100.424 73.242 100.016 73.674C99.6202 74.094 99.4222 74.7 99.4222 75.492V81H96.9022V71.028H99.4222V72.27C99.7582 71.838 100.184 71.502 100.7 71.262C101.228 71.01 101.804 70.884 102.428 70.884ZM108.155 75.978C108.155 74.97 108.353 74.076 108.749 73.296C109.157 72.516 109.709 71.916 110.405 71.496C111.101 71.076 111.875 70.866 112.727 70.866C113.375 70.866 113.993 71.01 114.581 71.298C115.169 71.574 115.637 71.946 115.985 72.414V67.68H118.541V81H115.985V79.524C115.673 80.016 115.235 80.412 114.671 80.712C114.107 81.012 113.453 81.162 112.709 81.162C111.869 81.162 111.101 80.946 110.405 80.514C109.709 80.082 109.157 79.476 108.749 78.696C108.353 77.904 108.155 76.998 108.155 75.978ZM116.003 76.014C116.003 75.402 115.883 74.88 115.643 74.448C115.403 74.004 115.079 73.668 114.671 73.44C114.263 73.2 113.825 73.08 113.357 73.08C112.889 73.08 112.457 73.194 112.061 73.422C111.665 73.65 111.341 73.986 111.089 74.43C110.849 74.862 110.729 75.378 110.729 75.978C110.729 76.578 110.849 77.106 111.089 77.562C111.341 78.006 111.665 78.348 112.061 78.588C112.469 78.828 112.901 78.948 113.357 78.948C113.825 78.948 114.263 78.834 114.671 78.606C115.079 78.366 115.403 78.03 115.643 77.598C115.883 77.154 116.003 76.626 116.003 76.014ZM256.598 73.098V77.922C256.598 78.258 256.676 78.504 256.832 78.66C257 78.804 257.276 78.876 257.66 78.876H258.83V81H257.246C255.122 81 254.06 79.968 254.06 77.904V73.098H252.872V71.028H254.06V68.562H256.598V71.028H258.83V73.098H256.598ZM261.92 69.84C261.476 69.84 261.104 69.702 260.804 69.426C260.516 69.138 260.372 68.784 260.372 68.364C260.372 67.944 260.516 67.596 260.804 67.32C261.104 67.032 261.476 66.888 261.92 66.888C262.364 66.888 262.73 67.032 263.018 67.32C263.318 67.596 263.468 67.944 263.468 68.364C263.468 68.784 263.318 69.138 263.018 69.426C262.73 69.702 262.364 69.84 261.92 69.84ZM263.162 71.028V81H260.642V71.028H263.162ZM278.036 70.884C279.26 70.884 280.244 71.262 280.988 72.018C281.744 72.762 282.122 73.806 282.122 75.15V81H279.602V75.492C279.602 74.712 279.404 74.118 279.008 73.71C278.612 73.29 278.072 73.08 277.388 73.08C276.704 73.08 276.158 73.29 275.75 73.71C275.354 74.118 275.156 74.712 275.156 75.492V81H272.636V75.492C272.636 74.712 272.438 74.118 272.042 73.71C271.646 73.29 271.106 73.08 270.422 73.08C269.726 73.08 269.174 73.29 268.766 73.71C268.37 74.118 268.172 74.712 268.172 75.492V81H265.652V71.028H268.172V72.234C268.496 71.814 268.91 71.484 269.414 71.244C269.93 71.004 270.494 70.884 271.106 70.884C271.886 70.884 272.582 71.052 273.194 71.388C273.806 71.712 274.28 72.18 274.616 72.792C274.94 72.216 275.408 71.754 276.02 71.406C276.644 71.058 277.316 70.884 278.036 70.884ZM293.783 75.798C293.783 76.158 293.759 76.482 293.711 76.77H286.421C286.481 77.49 286.733 78.054 287.177 78.462C287.621 78.87 288.167 79.074 288.815 79.074C289.751 79.074 290.417 78.672 290.813 77.868H293.531C293.243 78.828 292.691 79.62 291.875 80.244C291.059 80.856 290.057 81.162 288.869 81.162C287.909 81.162 287.045 80.952 286.277 80.532C285.521 80.1 284.927 79.494 284.495 78.714C284.075 77.934 283.865 77.034 283.865 76.014C283.865 74.982 284.075 74.076 284.495 73.296C284.915 72.516 285.503 71.916 286.259 71.496C287.015 71.076 287.885 70.866 288.869 70.866C289.817 70.866 290.663 71.07 291.407 71.478C292.163 71.886 292.745 72.468 293.153 73.224C293.573 73.968 293.783 74.826 293.783 75.798ZM291.173 75.078C291.161 74.43 290.927 73.914 290.471 73.53C290.015 73.134 289.457 72.936 288.797 72.936C288.173 72.936 287.645 73.128 287.213 73.512C286.793 73.884 286.535 74.406 286.439 75.078H291.173ZM298.143 72.576C298.467 72.048 298.887 71.634 299.403 71.334C299.931 71.034 300.531 70.884 301.203 70.884V73.53H300.537C299.745 73.53 299.145 73.716 298.737 74.088C298.341 74.46 298.143 75.108 298.143 76.032V81H295.623V71.028H298.143V72.576Z" fill="#1E052D"/>
<path d="M22.2318 81.162C21.4158 81.162 20.6838 81.018 20.0358 80.73C19.3878 80.43 18.8718 80.028 18.4878 79.524C18.1158 79.02 17.9118 78.462 17.8758 77.85H20.4138C20.4618 78.234 20.6478 78.552 20.9718 78.804C21.3078 79.056 21.7218 79.182 22.2138 79.182C22.6938 79.182 23.0658 79.086 23.3298 78.894C23.6058 78.702 23.7438 78.456 23.7438 78.156C23.7438 77.832 23.5758 77.592 23.2398 77.436C22.9158 77.268 22.3938 77.088 21.6738 76.896C20.9298 76.716 20.3178 76.53 19.8378 76.338C19.3698 76.146 18.9618 75.852 18.6138 75.456C18.2778 75.06 18.1098 74.526 18.1098 73.854C18.1098 73.302 18.2658 72.798 18.5778 72.342C18.9018 71.886 19.3578 71.526 19.9458 71.262C20.5458 70.998 21.2478 70.866 22.0518 70.866C23.2398 70.866 24.1878 71.166 24.8958 71.766C25.6038 72.354 25.9938 73.152 26.0658 74.16H23.6538C23.6178 73.764 23.4498 73.452 23.1498 73.224C22.8618 72.984 22.4718 72.864 21.9798 72.864C21.5238 72.864 21.1698 72.948 20.9178 73.116C20.6778 73.284 20.5578 73.518 20.5578 73.818C20.5578 74.154 20.7258 74.412 21.0618 74.592C21.3978 74.76 21.9198 74.934 22.6278 75.114C23.3478 75.294 23.9418 75.48 24.4098 75.672C24.8778 75.864 25.2798 76.164 25.6158 76.572C25.9638 76.968 26.1438 77.496 26.1558 78.156C26.1558 78.732 25.9938 79.248 25.6698 79.704C25.3578 80.16 24.9018 80.52 24.3018 80.784C23.7138 81.036 23.0238 81.162 22.2318 81.162ZM29.5024 69.84C29.0584 69.84 28.6864 69.702 28.3864 69.426C28.0984 69.138 27.9544 68.784 27.9544 68.364C27.9544 67.944 28.0984 67.596 28.3864 67.32C28.6864 67.032 29.0584 66.888 29.5024 66.888C29.9464 66.888 30.3124 67.032 30.6004 67.32C30.9004 67.596 31.0504 67.944 31.0504 68.364C31.0504 68.784 30.9004 69.138 30.6004 69.426C30.3124 69.702 29.9464 69.84 29.5024 69.84ZM30.7444 71.028V81H28.2244V71.028H30.7444ZM45.6182 70.884C46.8422 70.884 47.8262 71.262 48.5702 72.018C49.3262 72.762 49.7042 73.806 49.7042 75.15V81H47.1842V75.492C47.1842 74.712 46.9862 74.118 46.5902 73.71C46.1942 73.29 45.6542 73.08 44.9702 73.08C44.2862 73.08 43.7402 73.29 43.3322 73.71C42.9362 74.118 42.7382 74.712 42.7382 75.492V81H40.2182V75.492C40.2182 74.712 40.0202 74.118 39.6242 73.71C39.2282 73.29 38.6882 73.08 38.0042 73.08C37.3082 73.08 36.7562 73.29 36.3482 73.71C35.9522 74.118 35.7542 74.712 35.7542 75.492V81H33.2342V71.028H35.7542V72.234C36.0782 71.814 36.4922 71.484 36.9962 71.244C37.5122 71.004 38.0762 70.884 38.6882 70.884C39.4682 70.884 40.1642 71.052 40.7762 71.388C41.3882 71.712 41.8622 72.18 42.1982 72.792C42.5222 72.216 42.9902 71.754 43.6022 71.406C44.2262 71.058 44.8982 70.884 45.6182 70.884ZM54.6155 72.468C54.9395 72.012 55.3835 71.634 55.9475 71.334C56.5235 71.022 57.1775 70.866 57.9095 70.866C58.7615 70.866 59.5295 71.076 60.2135 71.496C60.9095 71.916 61.4555 72.516 61.8515 73.296C62.2595 74.064 62.4635 74.958 62.4635 75.978C62.4635 76.998 62.2595 77.904 61.8515 78.696C61.4555 79.476 60.9095 80.082 60.2135 80.514C59.5295 80.946 58.7615 81.162 57.9095 81.162C57.1775 81.162 56.5295 81.012 55.9655 80.712C55.4135 80.412 54.9635 80.034 54.6155 79.578V85.752H52.0955V71.028H54.6155V72.468ZM59.8895 75.978C59.8895 75.378 59.7635 74.862 59.5115 74.43C59.2715 73.986 58.9475 73.65 58.5395 73.422C58.1435 73.194 57.7115 73.08 57.2435 73.08C56.7875 73.08 56.3555 73.2 55.9475 73.44C55.5515 73.668 55.2275 74.004 54.9755 74.448C54.7355 74.892 54.6155 75.414 54.6155 76.014C54.6155 76.614 54.7355 77.136 54.9755 77.58C55.2275 78.024 55.5515 78.366 55.9475 78.606C56.3555 78.834 56.7875 78.948 57.2435 78.948C57.7115 78.948 58.1435 78.828 58.5395 78.588C58.9475 78.348 59.2715 78.006 59.5115 77.562C59.7635 77.118 59.8895 76.59 59.8895 75.978ZM66.8147 67.68V81H64.2947V67.68H66.8147ZM78.5745 75.798C78.5745 76.158 78.5505 76.482 78.5025 76.77H71.2125C71.2725 77.49 71.5245 78.054 71.9685 78.462C72.4125 78.87 72.9585 79.074 73.6065 79.074C74.5425 79.074 75.2085 78.672 75.6045 77.868H78.3225C78.0345 78.828 77.4825 79.62 76.6665 80.244C75.8505 80.856 74.8485 81.162 73.6605 81.162C72.7005 81.162 71.8365 80.952 71.0685 80.532C70.3125 80.1 69.7185 79.494 69.2865 78.714C68.8665 77.934 68.6565 77.034 68.6565 76.014C68.6565 74.982 68.8665 74.076 69.2865 73.296C69.7065 72.516 70.2945 71.916 71.0505 71.496C71.8065 71.076 72.6765 70.866 73.6605 70.866C74.6085 70.866 75.4545 71.07 76.1985 71.478C76.9545 71.886 77.5365 72.468 77.9445 73.224C78.3645 73.968 78.5745 74.826 78.5745 75.798ZM75.9645 75.078C75.9525 74.43 75.7185 73.914 75.2625 73.53C74.8065 73.134 74.2485 72.936 73.5885 72.936C72.9645 72.936 72.4365 73.128 72.0045 73.512C71.5845 73.884 71.3265 74.406 71.2305 75.078H75.9645ZM124.643 76.014C124.643 74.982 124.853 74.082 125.273 73.314C125.693 72.534 126.275 71.934 127.019 71.514C127.763 71.082 128.615 70.866 129.575 70.866C130.811 70.866 131.831 71.178 132.635 71.802C133.451 72.414 133.997 73.278 134.273 74.394H131.555C131.411 73.962 131.165 73.626 130.817 73.386C130.481 73.134 130.061 73.008 129.557 73.008C128.837 73.008 128.267 73.272 127.847 73.8C127.427 74.316 127.217 75.054 127.217 76.014C127.217 76.962 127.427 77.7 127.847 78.228C128.267 78.744 128.837 79.002 129.557 79.002C130.577 79.002 131.243 78.546 131.555 77.634H134.273C133.997 78.714 133.451 79.572 132.635 80.208C131.819 80.844 130.799 81.162 129.575 81.162C128.615 81.162 127.763 80.952 127.019 80.532C126.275 80.1 125.693 79.5 125.273 78.732C124.853 77.952 124.643 77.046 124.643 76.014ZM145.533 71.028V81H142.995V79.74C142.671 80.172 142.245 80.514 141.717 80.766C141.201 81.006 140.637 81.126 140.025 81.126C139.245 81.126 138.555 80.964 137.955 80.64C137.355 80.304 136.881 79.818 136.533 79.182C136.197 78.534 136.029 77.766 136.029 76.878V71.028H138.549V76.518C138.549 77.31 138.747 77.922 139.143 78.354C139.539 78.774 140.079 78.984 140.763 78.984C141.459 78.984 142.005 78.774 142.401 78.354C142.797 77.922 142.995 77.31 142.995 76.518V71.028H145.533ZM151.835 81.162C151.019 81.162 150.287 81.018 149.639 80.73C148.991 80.43 148.475 80.028 148.091 79.524C147.719 79.02 147.515 78.462 147.479 77.85H150.017C150.065 78.234 150.251 78.552 150.575 78.804C150.911 79.056 151.325 79.182 151.817 79.182C152.297 79.182 152.669 79.086 152.933 78.894C153.209 78.702 153.347 78.456 153.347 78.156C153.347 77.832 153.179 77.592 152.843 77.436C152.519 77.268 151.997 77.088 151.277 76.896C150.533 76.716 149.921 76.53 149.441 76.338C148.973 76.146 148.565 75.852 148.217 75.456C147.881 75.06 147.713 74.526 147.713 73.854C147.713 73.302 147.869 72.798 148.181 72.342C148.505 71.886 148.961 71.526 149.549 71.262C150.149 70.998 150.851 70.866 151.655 70.866C152.843 70.866 153.791 71.166 154.499 71.766C155.207 72.354 155.597 73.152 155.669 74.16H153.257C153.221 73.764 153.053 73.452 152.753 73.224C152.465 72.984 152.075 72.864 151.583 72.864C151.127 72.864 150.773 72.948 150.521 73.116C150.281 73.284 150.161 73.518 150.161 73.818C150.161 74.154 150.329 74.412 150.665 74.592C151.001 74.76 151.523 74.934 152.231 75.114C152.951 75.294 153.545 75.48 154.013 75.672C154.481 75.864 154.883 76.164 155.219 76.572C155.567 76.968 155.747 77.496 155.759 78.156C155.759 78.732 155.597 79.248 155.273 79.704C154.961 80.16 154.505 80.52 153.905 80.784C153.317 81.036 152.627 81.162 151.835 81.162ZM160.762 73.098V77.922C160.762 78.258 160.84 78.504 160.996 78.66C161.164 78.804 161.44 78.876 161.824 78.876H162.994V81H161.41C159.286 81 158.224 79.968 158.224 77.904V73.098H157.036V71.028H158.224V68.562H160.762V71.028H162.994V73.098H160.762ZM169.234 81.162C168.274 81.162 167.41 80.952 166.642 80.532C165.874 80.1 165.268 79.494 164.824 78.714C164.392 77.934 164.176 77.034 164.176 76.014C164.176 74.994 164.398 74.094 164.842 73.314C165.298 72.534 165.916 71.934 166.696 71.514C167.476 71.082 168.346 70.866 169.306 70.866C170.266 70.866 171.136 71.082 171.916 71.514C172.696 71.934 173.308 72.534 173.752 73.314C174.208 74.094 174.436 74.994 174.436 76.014C174.436 77.034 174.202 77.934 173.734 78.714C173.278 79.494 172.654 80.1 171.862 80.532C171.082 80.952 170.206 81.162 169.234 81.162ZM169.234 78.966C169.69 78.966 170.116 78.858 170.512 78.642C170.92 78.414 171.244 78.078 171.484 77.634C171.724 77.19 171.844 76.65 171.844 76.014C171.844 75.066 171.592 74.34 171.088 73.836C170.596 73.32 169.99 73.062 169.27 73.062C168.55 73.062 167.944 73.32 167.452 73.836C166.972 74.34 166.732 75.066 166.732 76.014C166.732 76.962 166.966 77.694 167.434 78.21C167.914 78.714 168.514 78.966 169.234 78.966ZM188.669 70.884C189.893 70.884 190.877 71.262 191.621 72.018C192.377 72.762 192.755 73.806 192.755 75.15V81H190.235V75.492C190.235 74.712 190.037 74.118 189.641 73.71C189.245 73.29 188.705 73.08 188.021 73.08C187.337 73.08 186.791 73.29 186.383 73.71C185.987 74.118 185.789 74.712 185.789 75.492V81H183.269V75.492C183.269 74.712 183.071 74.118 182.675 73.71C182.279 73.29 181.739 73.08 181.055 73.08C180.359 73.08 179.807 73.29 179.399 73.71C179.003 74.118 178.805 74.712 178.805 75.492V81H176.285V71.028H178.805V72.234C179.129 71.814 179.543 71.484 180.047 71.244C180.563 71.004 181.127 70.884 181.739 70.884C182.519 70.884 183.215 71.052 183.827 71.388C184.439 71.712 184.913 72.18 185.249 72.792C185.573 72.216 186.041 71.754 186.653 71.406C187.277 71.058 187.949 70.884 188.669 70.884ZM196.424 69.84C195.98 69.84 195.608 69.702 195.308 69.426C195.02 69.138 194.876 68.784 194.876 68.364C194.876 67.944 195.02 67.596 195.308 67.32C195.608 67.032 195.98 66.888 196.424 66.888C196.868 66.888 197.234 67.032 197.522 67.32C197.822 67.596 197.972 67.944 197.972 68.364C197.972 68.784 197.822 69.138 197.522 69.426C197.234 69.702 196.868 69.84 196.424 69.84ZM197.666 71.028V81H195.146V71.028H197.666ZM202.46 78.93H206.906V81H199.598V78.966L203.954 73.098H199.616V71.028H206.852V73.062L202.46 78.93ZM208.209 75.978C208.209 74.97 208.407 74.076 208.803 73.296C209.211 72.516 209.757 71.916 210.441 71.496C211.137 71.076 211.911 70.866 212.763 70.866C213.507 70.866 214.155 71.016 214.707 71.316C215.271 71.616 215.721 71.994 216.057 72.45V71.028H218.595V81H216.057V79.542C215.733 80.01 215.283 80.4 214.707 80.712C214.143 81.012 213.489 81.162 212.745 81.162C211.905 81.162 211.137 80.946 210.441 80.514C209.757 80.082 209.211 79.476 208.803 78.696C208.407 77.904 208.209 76.998 208.209 75.978ZM216.057 76.014C216.057 75.402 215.937 74.88 215.697 74.448C215.457 74.004 215.133 73.668 214.725 73.44C214.317 73.2 213.879 73.08 213.411 73.08C212.943 73.08 212.511 73.194 212.115 73.422C211.719 73.65 211.395 73.986 211.143 74.43C210.903 74.862 210.783 75.378 210.783 75.978C210.783 76.578 210.903 77.106 211.143 77.562C211.395 78.006 211.719 78.348 212.115 78.588C212.523 78.828 212.955 78.948 213.411 78.948C213.879 78.948 214.317 78.834 214.725 78.606C215.133 78.366 215.457 78.03 215.697 77.598C215.937 77.154 216.057 76.626 216.057 76.014ZM223.576 72.486C223.9 72.006 224.344 71.616 224.908 71.316C225.484 71.016 226.138 70.866 226.87 70.866C227.722 70.866 228.49 71.076 229.174 71.496C229.87 71.916 230.416 72.516 230.812 73.296C231.22 74.064 231.424 74.958 231.424 75.978C231.424 76.998 231.22 77.904 230.812 78.696C230.416 79.476 229.87 80.082 229.174 80.514C228.49 80.946 227.722 81.162 226.87 81.162C226.126 81.162 225.472 81.018 224.908 80.73C224.356 80.43 223.912 80.046 223.576 79.578V81H221.056V67.68H223.576V72.486ZM228.85 75.978C228.85 75.378 228.724 74.862 228.472 74.43C228.232 73.986 227.908 73.65 227.5 73.422C227.104 73.194 226.672 73.08 226.204 73.08C225.748 73.08 225.316 73.2 224.908 73.44C224.512 73.668 224.188 74.004 223.936 74.448C223.696 74.892 223.576 75.414 223.576 76.014C223.576 76.614 223.696 77.136 223.936 77.58C224.188 78.024 224.512 78.366 224.908 78.606C225.316 78.834 225.748 78.948 226.204 78.948C226.672 78.948 227.104 78.828 227.5 78.588C227.908 78.348 228.232 78.006 228.472 77.562C228.724 77.118 228.85 76.59 228.85 75.978ZM235.776 67.68V81H233.256V67.68H235.776ZM247.535 75.798C247.535 76.158 247.511 76.482 247.463 76.77H240.173C240.233 77.49 240.485 78.054 240.929 78.462C241.373 78.87 241.919 79.074 242.567 79.074C243.503 79.074 244.169 78.672 244.565 77.868H247.283C246.995 78.828 246.443 79.62 245.627 80.244C244.811 80.856 243.809 81.162 242.621 81.162C241.661 81.162 240.797 80.952 240.029 80.532C239.273 80.1 238.679 79.494 238.247 78.714C237.827 77.934 237.617 77.034 237.617 76.014C237.617 74.982 237.827 74.076 238.247 73.296C238.667 72.516 239.255 71.916 240.011 71.496C240.767 71.076 241.637 70.866 242.621 70.866C243.569 70.866 244.415 71.07 245.159 71.478C245.915 71.886 246.497 72.468 246.905 73.224C247.325 73.968 247.535 74.826 247.535 75.798ZM244.925 75.078C244.913 74.43 244.679 73.914 244.223 73.53C243.767 73.134 243.209 72.936 242.549 72.936C241.925 72.936 241.397 73.128 240.965 73.512C240.545 73.884 240.287 74.406 240.191 75.078H244.925Z" fill="#FF357E"/>
</svg>
