<svg width="39" height="39" viewBox="0 0 39 39" fill="none" xmlns="http://www.w3.org/2000/svg">
<path d="M14.6994 16.1135C16.1792 16.1135 17.3788 14.9139 17.3788 13.4342C17.3788 11.9544 16.1792 10.7548 14.6994 10.7548C13.2196 10.7548 12.02 11.9544 12.02 13.4342C12.02 14.9139 13.2196 16.1135 14.6994 16.1135Z" fill="#FF357E"/>
<path d="M36.6927 23.2958C35.4275 22.1049 33.8273 21.3234 32.0782 21.1002V7.47993C32.0782 6.02859 31.4828 4.72611 30.5525 3.75855C29.5849 2.79099 28.2824 2.23279 26.8311 2.23279H5.24714C3.7958 2.23279 2.49332 2.82821 1.52576 3.75855C0.558206 4.72611 0 6.02859 0 7.47993V24.6355V26.2356V29.6965C0 31.1479 0.59542 32.4503 1.52576 33.4179C2.49332 34.3855 3.7958 34.9437 5.24714 34.9437H26.124C27.501 36.0601 29.2128 36.7671 31.1107 36.7671C33.3063 36.7671 35.2786 35.874 36.6927 34.4599C38.1069 33.0458 39 31.0734 39 28.8778C39 26.6822 38.1069 24.7099 36.6927 23.2958ZM1.97233 7.47993C1.97233 6.5868 2.34447 5.76809 2.93989 5.20989C3.53531 4.61447 4.35401 4.24233 5.24714 4.24233H26.8311C27.7242 4.24233 28.5429 4.61447 29.1384 5.20989C29.7338 5.80531 30.1059 6.62401 30.1059 7.51714V19.1278L24.5983 13.6202C24.2261 13.2481 23.5935 13.2108 23.1842 13.6202L14.8855 21.9561L9.26622 16.2996C8.89408 15.9274 8.26145 15.8902 7.8521 16.2996L1.97233 22.2538V7.47993ZM5.20992 33.0458V32.9713C4.31679 32.9713 3.49809 32.5992 2.90267 32.0038C2.34447 31.4084 1.97233 30.5897 1.97233 29.6965V26.2356V25.082L8.55916 18.458L14.1784 24.0772C14.5506 24.4494 15.1832 24.4494 15.5926 24.0772L23.8912 15.7414L29.3244 21.2118C29.2128 21.249 29.1011 21.2862 28.9895 21.3234C28.8406 21.3606 28.6918 21.3979 28.5057 21.4723C28.3569 21.5095 28.208 21.5839 28.0592 21.6211C27.9475 21.6584 27.8731 21.6956 27.7614 21.77C27.6126 21.8444 27.501 21.8816 27.3893 21.9561C27.2032 22.0677 27.0172 22.1794 26.8311 22.291C26.7195 22.3654 26.645 22.4026 26.5334 22.4771C26.459 22.5143 26.4218 22.5515 26.3473 22.5887C26.0124 22.812 25.7147 23.0725 25.4542 23.3702C24.0401 24.7843 23.1469 26.7566 23.1469 28.9523C23.1469 29.5105 23.2214 30.0314 23.333 30.5897C23.3702 30.7385 23.4074 30.8502 23.4447 30.999C23.5563 31.3711 23.6679 31.7433 23.8168 32.1154V32.1526C23.9656 32.4503 24.1145 32.7853 24.3006 33.0458H5.20992ZM35.2414 33.0458C34.1622 34.125 32.7109 34.7576 31.0735 34.7576C29.5105 34.7576 28.0592 34.125 27.0172 33.1202C26.8683 32.9713 26.7195 32.7853 26.5706 32.6364C26.459 32.5248 26.3473 32.3759 26.2357 32.2643C26.0868 32.0782 25.9752 31.8549 25.8635 31.6316C25.7891 31.4828 25.7147 31.3711 25.6403 31.2223C25.5658 31.0362 25.4914 30.8129 25.4542 30.5897C25.417 30.4408 25.3426 30.2547 25.3053 30.1059C25.2309 29.7337 25.1937 29.3244 25.1937 28.915C25.1937 27.2776 25.8636 25.8263 26.9055 24.7471C27.9475 23.6679 29.4361 23.0353 31.0735 23.0353C32.7109 23.0353 34.1622 23.7051 35.2414 24.7471C36.3206 25.8263 36.9532 27.2776 36.9532 28.915C36.9532 30.5152 36.2834 31.9666 35.2414 33.0458Z" fill="#FF357E"/>
<path d="M31.7806 24.896C31.7061 24.8216 31.5945 24.7471 31.4456 24.6727C31.334 24.6355 31.2224 24.5983 31.1107 24.5983C31.0735 24.5983 31.0735 24.5983 31.0735 24.5983C31.0363 24.5983 31.0363 24.5983 31.0363 24.5983C30.9247 24.5983 30.813 24.6355 30.7014 24.6727C30.5897 24.7099 30.4781 24.7843 30.3664 24.896L28.0592 27.2032C27.6871 27.5754 27.6871 28.208 28.0592 28.6174C28.4313 28.9895 29.064 28.9895 29.4733 28.6174L30.0687 28.0219V32.1154C30.0687 32.6737 30.5153 33.1202 31.0735 33.1202C31.6317 33.1202 32.0783 32.6737 32.0783 32.1154V28.0219L32.6737 28.6174C33.0458 28.9895 33.6785 28.9895 34.0878 28.6174C34.46 28.2452 34.46 27.6126 34.0878 27.2032L31.7806 24.896Z" fill="#FF357E"/>
</svg>
